<?xml version="1.0" encoding="UTF-8" standalone="no"?><svg width="1500" height="600" viewBox="0 0 1500 600" xmlns="http://www.w3.org/2000/svg"><g fill="none" fill-rule="evenodd"><path d="M1036.45 382.95c13.2-16.5 30.8-29.15 52.25-29.15 33.55 0 50.6 23.65 50.6 78.1 0 54.45-19.8 75.35-52.25 75.35-23.1 0-40.15-12.1-50.6-25.3v-99zM1015.55 576l8.25-33.55c16.5 20.35 44.55 40.15 83.6 40.15 91.3 0 130.9-56.65 130.9-154 0-103.95-53.9-150.15-119.35-150.15-35.75 0-63.25 13.75-82.5 34.1V180h-93.5v396h72.6zM874.7 488c-35.75 15.4-58.85 21.45-85.8 21.45-40.7 0-56.1-25.3-59.95-52.25h179.3c1.1-6.6 1.65-33 1.65-41.25 0-92.4-47.85-137.5-132.55-137.5-90.75 0-147.4 60.5-147.4 154.55 0 94.6 53.9 150.15 146.3 150.15 47.3 0 87.45-13.75 122.65-36.85L874.7 488zm-145.75-87.45c.55-21.45 14.3-52.8 49.5-52.8 32.45 0 42.9 23.1 42.9 52.8h-92.4zM548.05 285.05l-35.2 188.65-44-188.65h-88l-37.4 188.65-41.25-188.65h-92.4L288.45 576H390.2l34.65-166.65L460.6 576h101.75L641 285.05h-92.95z" fill="#FF6D5B"/><path d="M570.8633 570.2456c-.077-.1167-.1705-.2366-.2807-.3597-.1102-.1232-.224-.2453-.3415-.3664-.1173-.121-.234-.2344-.35-.3397-.116-.1055-.2182-.1987-.3067-.28l-.018-.0057c-.008-.0026-.0127-.0052-.014-.0078-.0014-.0027-.004-.0046-.008-.006-.064-.0207-.12-.005-.1677.047-.048.0522-.0886.1165-.1223.1928-.0336.0764-.062.1534-.085.231-.023.0777-.0397.1324-.05.164-.0487.15-.0606.2717-.0357.365.025.093.0597.1732.1042.24.0446.067.085.1292.1215.1868.0365.0578.042.1262.0163.205-.018.0554-.0533.103-.106.1425-.0526.0397-.109.0498-.1688.0303-.028-.009-.0887-.067-.182-.1738-.0935-.1067-.1995-.2394-.318-.398-.1186-.1585-.2426-.331-.372-.517-.1296-.1862-.247-.365-.3525-.537-.1054-.1717-.189-.3222-.2508-.4514-.062-.1292-.0857-.2156-.0716-.259.1118.0364.2186.095.3204.1762.1017.081.202.1736.3007.2777.0988.1042.1965.2145.2934.331.0968.1167.195.226.2943.3282.004.0013.0157-.0178.0352-.0573.0193-.0395.0434-.0863.072-.1403.0286-.054.0565-.1093.0837-.166.0272-.0565.0493-.104.066-.142l.081-.249c.0025-.0078.0106-.026.0242-.0542.0135-.0283.0238-.06.0307-.0948.007-.035.009-.068.006-.0996-.003-.0315-.0193-.0564-.0487-.0747-.0282-.0223-.07-.06-.1257-.113-.0557-.053-.118-.1125-.187-.1786-.0692-.066-.1413-.1363-.2165-.211l-.2154-.214c-.0684-.068-.1295-.1283-.183-.1807l-.121-.1178c-.0724-.076-.1375-.144-.1953-.2043-.0576-.0602-.1044-.12-.1402-.1798-.0358-.0597-.057-.1233-.064-.191-.0066-.0677.0055-.149.0362-.2437.032.0104.085.0483.1586.1137.0737.0655.1508.1375.2313.216.0804.0786.1556.1532.2254.224.0697.0706.1167.1164.1408.1373.0267.013.066.0454.1176.0972.0516.0516.1097.1108.174.1776.0646.0668.1324.1368.2035.21.0712.0735.1373.1386.1983.1955.061.057.1136.0993.1577.1267.044.0274.074.0306.0897.0095.0218-.0672.0247-.1306.0088-.1903-.016-.06-.013-.1233.0088-.1905.014-.0434.036-.0832.0654-.1195.0294-.0363.072-.0453.128-.0272.06.0195.1002.0555.1207.108.0205.0525.0315.114.033.1842.0013.0704-.0008.1482-.0064.2337-.0057.0855-.0068.1703-.0032.2544.0037.0842.0195.1647.0476.2414.028.0768.0756.1414.1425.1937.0817.0615.193.1436.3343.2462.141.1026.2758.215.404.3375.128.1224.2316.252.3108.389.0792.1372.0976.271.0553.4012-.0116.0354-.0248.066-.0398.0917-.015.0257-.0464.0374-.0942.035zm-.1117-2.5102c-.116-.0377-.2247-.097-.3264-.178-.1018-.0812-.2-.17-.2946-.266-.0947-.0964-.188-.1933-.28-.2908-.092-.0976-.1868-.1797-.2844-.2463.0196.0893.0237.1616.0124.2168-.0114.0554-.0292.1205-.0536.1955-.0026.008-.0116.0323-.027.073-.0155.041-.0252.0673-.029.079-.0802-.0522-.145-.1212-.1944-.207-.0494-.086-.086-.1776-.1096-.2748-.0236-.097-.038-.1957-.043-.2955-.0052-.1-.0062-.1887-.003-.2662-.1494-.1795-.3067-.3376-.4722-.4743-.1654-.1367-.3265-.273-.4833-.4092-.1568-.136-.301-.2833-.433-.4418-.1317-.1586-.2387-.3494-.3208-.5725l.2374.0444 1.5156 1.311c.0022-.0474.0075-.1046.016-.1717.0086-.067.0175-.1352.0266-.2042.0092-.069.0188-.1358.0287-.2003.0098-.0645.0158-.1203.018-.1677.0012-.004.004-.016.0084-.0365.0045-.0204.0086-.0365.0124-.0483.018-.0553.0427-.0975.0743-.1265.0316-.029.0852-.0444.1608-.046-.0073.2944-.0023.5646.015.8103.0174.2457.071.4716.161.6776.0897.206.2272.3948.4123.5662.185.1715.441.332.7678.482.072.0234.1392.0408.2017.0524s.1145-.026.156-.113c.0295-.0908.039-.1816.0288-.2722-.0103-.0907-.0242-.1804-.0418-.269-.0176-.0887-.032-.1774-.0428-.266-.011-.0887-.0017-.1785.0278-.2693.096.0312.1704.1012.2234.21.0528.109.0904.2314.1124.3674.022.1358.0293.2702.0215.403-.008.1328-.0247.2387-.0503.3177-.0257.079-.0648.1448-.1173.1976-.0525.0528-.1124.0912-.1798.115-.0675.024-.1407.0352-.2196.0335-.079-.0016-.1565-.0148-.2324-.0394zm1.7297-3.325c-.016.104-.0622.1882-.1385.253-.0762.0647-.163.1074-.2603.1282-.0973.0207-.1962.0192-.2967-.0047-.1004-.024-.183-.0727-.2474-.146-.1713-.2478-.3136-.425-.427-.5317-.1133-.1066-.1998-.16-.2595-.1596-.06.0002-.098.0425-.1142.1266-.0163.0842-.012.1937.0126.3283.0248.1346.0656.2843.1225.449.0568.1648.1266.324.2092.4774.0827.1534.1752.2937.2775.4208.1022.127.2115.2226.3276.2866.0112.0472.0192.087.0243.1192.005.032.0017.066-.01.1016-.019.0592-.0506.0882-.0944.087-.0438-.001-.0877-.0088-.1317-.023-.1-.0325-.1928-.0965-.2788-.192-.086-.0957-.1628-.1993-.2304-.3107-.0676-.1115-.1282-.2174-.1817-.3177-.0536-.1004-.0992-.1742-.137-.2213-.1316-.152-.2763-.308-.434-.4685-.1578-.1604-.3195-.322-.4852-.485-.1657-.163-.3285-.3284-.4883-.496-.1597-.1676-.309-.3372-.4475-.509-.0255-.03-.042-.054-.0495-.0716-.0075-.0177-.0068-.0404.0022-.068.0102-.0317.024-.0534.041-.0653.0172-.0118.0443-.0205.0814-.026.016.0053.041.0167.075.0343.034.0176.071.0362.111.0558.04.0196.0765.0402.1093.0617.0326.0216.0544.0363.065.044.0403.0394.1114.1062.2133.2004.102.0943.2102.196.325.3054.1146.1093.2272.2147.338.316.1105.1015.1933.1764.2482.2248-.0207-.0722-.0343-.1355-.041-.19-.0065-.0546-.0074-.1062-.0026-.1548.0046-.0487.014-.098.028-.148.014-.05.0307-.1047.05-.164.082-.1304.1666-.2066.2532-.2287.0867-.022.174-.009.2622.0394s.1786.1203.2712.216c.0926.0955.1853.1943.278.2965.0927.102.1837.196.273.2818.089.0858.1783.141.2675.1656.036.0115.0646.012.0857.0015.021-.0106.0395-.0265.0552-.0476.0156-.0212.028-.0455.037-.0732l.025-.077c.027-.083.04-.167.039-.2525-.001-.0855-.0053-.171-.013-.2563-.0075-.0854-.0118-.1708-.0127-.2563-.001-.0854.012-.1696.039-.2525.076.0246.1356.0855.1792.1826.0435.097.0733.206.0892.327.016.121.0203.2434.013.3677-.0072.1242-.023.224-.0474.299zm.3212-6.504c-.0127.0703-.019.166-.0192.287 0 .1637-.001.3435-.003.5394-.0017.1958-.009.3953-.022.5985-.013.203-.044.3797-.0927.5298-.0437.1343-.1156.23-.2158.287-.1002.0568-.2223.062-.366.0152-.008-.0026-.0278-.01-.059-.0225-.0314-.0123-.051-.0198-.059-.0224-.176-.1925-.321-.3783-.4353-.5572-.114-.179-.2037-.362-.2688-.549-.0652-.187-.109-.3857-.131-.596-.0224-.2102-.0262-.4395-.0118-.688-.0072-.046-.0245-.0778-.052-.0955-.0273-.0176-.057-.0316-.089-.042-.052-.017-.0953-.0124-.1302.0134-.035.0256-.064.0642-.0873.1156-.0233.0513-.0446.1066-.0638.166-.0193.059-.0415.114-.067.1648-.0252.0507-.0543.0893-.087.1157-.033.0265-.0754.0313-.1274.0144-.1-.0325-.1895-.0965-.269-.192-.0792-.0958-.1428-.2027-.1906-.3208-.0477-.118-.0793-.2386-.0946-.3614-.0152-.123-.008-.2297.0214-.3205.0167-.0514.0435-.0896.0804-.1147.0368-.025.0778-.0424.1228-.0518.045-.0094.093-.0112.1443-.0055.051.0057.0986.0157.1425.03l.0674-.2073c-.052-.017-.1196-.0334-.2027-.0495-.083-.0162-.167-.0227-.252-.0198-.085.003-.162.0194-.2314.0493-.0694.03-.1157.0803-.1387.1514-.054.1657-.079.3377-.075.5158.004.178.036.348.0963.5093.0602.1616.1504.3055.2706.432.1202.1262.2682.218.444.275.1037.0207.179.0266.226.018.0472-.0088.0826-.0093.1066-.0015.0694.1535.1417.3287.217.5256.075.197.1638.3895.266.5777.1024.1882.2218.3613.3582.519.1365.158.2987.274.4867.348.092.03.189.0473.2912.0522.102.0047.1992-.0052.2912-.03.092-.0246.1744-.0676.2473-.129.073-.0615.1262-.1435.1595-.2462.0467-.1027.0868-.226.1203-.3702.0336-.144.0584-.2953.0746-.4538.016-.1585.0216-.3182.0164-.4792-.005-.161-.022-.3095-.0507-.4454-.0287-.136-.0715-.2525-.1283-.3495-.0153-.026-.0316-.0498-.049-.0712.0395.01.0788.0187.118.0258.0752.0135.145.0132.209-.001.0643-.014.1227-.044.1752-.0903.0526-.0462.0936-.1148.123-.2056l.0117-.0355c.005-.029.0105-.0666.0166-.1126.006-.046.012-.091.0174-.135.0054-.0442.009-.0823.0106-.1145l.0025-.0485-.475-1.1693c.1953.011.3556-.0132.481-.073.1254-.0596.224-.1388.296-.2377.0718-.099.1198-.2056.1437-.32.024-.1145.0317-.22.0233-.3166-.0083-.0967-.029-.1722-.0622-.2266-.033-.0544-.0715-.0723-.115-.0538-.0437.0186-.0887.0858-.1352.2017-.0464.116-.086.2994-.119.5506-.0904.1146-.1978.153-.3223.1146-.1245-.0383-.2578-.121-.4-.2478-.142-.127-.2898-.284-.443-.4714-.1535-.1874-.3042-.3728-.4522-.5562-.0618-.068-.1404-.1493-.2357-.2436-.0952-.0942-.1945-.193-.298-.2965-.1032-.1033-.207-.2058-.311-.3072-.1038-.1015-.199-.1924-.2856-.273l-.2112-.1963c-.0543-.0503-.0854-.0768-.0934-.0794l-.3088.155c-.0026.008.025.052.083.132.058.0798.129.174.2132.282.0842.108.171.2182.2605.3302.0895.112.165.202.227.2702.035.042.0977.1103.1884.2053.0905.095.1872.195.29.3005.1026.1054.2005.205.2938.2985.0933.0936.1587.1574.1962.1915l-.0115.0355c-.0244.075-.0615.1416-.1112.1996-.0498.058-.087.1246-.1113.1996-.0616.1894-.0814.4035-.0595.642.022.2385.0785.4686.17.6904.0913.2218.2146.42.37.595.1358.153.289.264.459.333zm.1325-.3798c.024.0078.0517.0178.083.0302.0313.0124.061.0198.0888.0223.028.0026.0547-.0017.0805-.013.0258-.0113.0444-.0347.056-.0703.0166-.0513.018-.1196.0036-.205-.0143-.0854-.0358-.172-.0647-.26-.0288-.088-.0593-.171-.0913-.249-.032-.0782-.0556-.135-.0706-.1704-.019-.0367-.0533-.1046-.1028-.2036-.0496-.099-.103-.2027-.1607-.311-.0577-.1082-.111-.2095-.1598-.304-.0488-.0944-.0847-.1606-.1077-.1986l-.018-.0058c-.008-.0026-.0127-.0052-.014-.0078-.0014-.0026-.004-.0046-.008-.006-.036-.0116-.0665-.0095-.0915.0064-.025.016-.0454.0376-.061.0653-.0156.0278-.0276.0577-.036.09-.008.0322-.0155.0582-.022.078-.046.142-.065.302-.0562.4793.0086.1774.0423.349.1012.5142.059.1654.1432.314.253.4456.1095.1318.2422.223.398.2736zm.9617-2.6113c-.056-.0182-.103-.04-.141-.0655-.038-.0255-.086-.065-.1436-.1187-.0308-.0405-.0904-.1155-.1785-.225-.088-.1093-.181-.2246-.2784-.3458-.0974-.121-.1892-.236-.2753-.3448-.086-.1088-.1467-.184-.1816-.226-.0403-.0524-.0593-.0892-.057-.1102.0026-.021.0128-.0592.0307-.1145.0116-.0355.026-.0734.0435-.1136.0175-.04.054-.0576.11-.0526.1177.0994.2225.2153.3142.3477.0916.1325.183.2626.274.3904.091.1277.1884.2456.2924.3536.104.108.228.1854.3717.232.005-.0156.015-.0397.03-.072.015-.0322.0308-.0674.0476-.1056.017-.0382.0328-.0735.0477-.1057.015-.0323.023-.057.024-.074.0038-.025.008-.0684.0125-.1302l.0148-.1983c.0052-.0703.0094-.1377.0127-.202.0032-.0645.0047-.11.0044-.1362.008.0026.0214.0058.04.0097.0186.004.032.007.04.0097.0798.026.134.084.162.1738.0282.09.0416.188.04.2946-.0014.1065-.0135.2117-.0362.3157-.0227.104-.043.1835-.061.2388-.0193.0592-.0458.1172-.0797.1738-.0338.0568-.0744.1036-.1217.1406-.0474.037-.1008.0622-.1604.0756-.0596.0134-.1254.0084-.1973-.015zm-2.8174-2.7104c.0167-.0514.034-.098.0522-.1403.018-.042.0402-.0764.0665-.1028.0262-.0265.0586-.0443.097-.0537.0383-.0094.0855-.005.1414.0132l.078.0253c.028.009.054.021.078.0352.024.0144.0425.0324.0553.054.013.0217.0135.0502.002.0858-.018.0553-.0524.0932-.1033.1138-.0508.0206-.1058.03-.165.0283-.059-.002-.117-.01-.1743-.024-.0572-.0143-.0998-.026-.1277-.035zm2.9225 1.2024c-.1158-.0377-.2247-.097-.3264-.1782-.1018-.081-.2-.1697-.2946-.266-.0946-.0962-.188-.193-.28-.2906-.092-.0976-.1867-.1797-.2844-.2463.0196.0893.0237.1616.0124.2168-.0113.0554-.0292.1205-.0536.1955-.0025.008-.0115.0323-.027.073-.0155.041-.025.0673-.029.079-.0802-.0522-.145-.1212-.1944-.207-.0494-.086-.086-.1776-.1096-.2748-.0236-.097-.038-.1957-.043-.2955-.0052-.1-.0062-.1887-.003-.2662-.1493-.1795-.3067-.3376-.472-.4743-.1656-.1367-.3267-.273-.4834-.4092-.1568-.136-.301-.2833-.433-.442-.1318-.1584-.2387-.3492-.321-.5723l.2375.0443 1.5156 1.311c.002-.0473.0073-.1045.016-.1716.0084-.067.0173-.1352.0265-.2043.009-.069.0187-.1358.0286-.2002.01-.0645.016-.1203.018-.1677.0014-.004.0043-.016.0087-.0365.0044-.0204.0085-.0365.0124-.0484.018-.0553.0428-.0975.0743-.1265.0315-.029.085-.0444.1607-.046-.0073.2944-.0023.5645.015.8103.0174.2457.071.4716.161.6776.0898.206.2272.3948.4123.5662.185.1715.441.332.7678.482.072.0234.1392.0408.2017.0524s.1145-.026.156-.113c.0295-.0908.039-.1816.0288-.2723-.0103-.0906-.0242-.1803-.0418-.269-.0176-.0886-.0318-.1773-.0428-.266-.011-.0886-.0017-.1784.0278-.2692.096.031.1703.1012.2233.21.053.109.0906.2314.1127.3673.022.136.0292.2704.0214.4032-.0077.1328-.0245.2387-.05.3177-.0258.079-.065.1448-.1173.1976-.0525.0528-.1125.0912-.18.115-.0673.024-.1405.0352-.2195.0335-.079-.0016-.1564-.0148-.2324-.0394zm.3156-1.7854c-.056-.0182-.103-.04-.141-.0655-.0382-.0255-.086-.065-.1437-.1187-.031-.0406-.0905-.1157-.1787-.225-.088-.1095-.181-.2248-.2785-.346-.0976-.1212-.1895-.236-.2756-.345-.0863-.1087-.1468-.184-.1818-.226-.0404-.0523-.0594-.089-.057-.11.0025-.021.0126-.0593.0306-.1146.0116-.0355.026-.0734.0435-.1135.0175-.0402.054-.0578.11-.0527.1178.0994.2226.2153.3143.3477.0918.1324.183.2625.274.3903.091.1278.1887.2457.2927.3537.104.108.228.1854.372.2322.005-.016.015-.04.03-.0722.0148-.0323.0307-.0675.0475-.1057.0168-.038.0327-.0733.0476-.1056.015-.0323.023-.057.024-.074.0038-.025.008-.0684.0125-.1302l.0146-.1983c.0052-.0704.0095-.1378.0127-.2022.0033-.0644.0048-.1098.0045-.136.008.0025.0213.0057.04.0096.0185.004.0318.007.0398.0097.08.026.134.084.1622.174.0282.09.0416.188.04.2946-.0013.1064-.0134.2117-.0362.3156-.0227.104-.043.1836-.061.2388-.0193.0593-.0458.1172-.0797.174-.034.0565-.0746.1034-.122.1404-.0473.037-.1008.0622-.1603.0755-.0596.0133-.1254.0083-.1973-.015zm-2.7245-2.8936c.0166-.0513.034-.098.052-.1402.0182-.042.0403-.0764.0666-.1028.0262-.0264.0586-.0442.097-.0536.0383-.0094.0855-.005.1414.0132l.078.0253c.028.009.054.021.078.0352.024.0144.0425.0324.0553.054.013.0217.0135.0502.002.0858-.018.0553-.0524.0932-.1033.1138-.0508.0207-.1058.03-.165.0284-.059-.0018-.117-.0098-.1743-.024-.0573-.0142-.1-.026-.1278-.035zm3.0644 1.443c-.016-.005-.0486-.0168-.098-.035-.0492-.0182-.082-.03-.0978-.035-.2507-.2212-.4678-.4708-.6514-.7487-.1836-.278-.3308-.5725-.4418-.8836.0026-.0077.0037-.0216.0035-.0413-.0003-.0197.001-.0335.0034-.0414.0347-.1066.0862-.187.1546-.2412.0684-.054.1463-.09.2337-.1073.0874-.0175.1786-.0195.2737-.006.095.0134.1845.0337.2684.061.1558.0506.307.139.4538.2653.1467.1263.2715.2727.3742.4392.1027.1665.174.3414.214.5246.0397.1832.0327.3577-.0212.5236-.054.1658-.139.2746-.255.3264-.1163.0517-.2543.0516-.4142-.0003zm.1202-.4748c.044.0142.0797.0062.1072-.024.0275-.0305.047-.0634.0586-.099.032-.0987.0362-.2032.0124-.3135-.0238-.1102-.0647-.2152-.123-.315-.058-.0996-.13-.1874-.2158-.2633-.0858-.0758-.1747-.1287-.2666-.1586-.044-.0142-.0938-.027-.1497-.0387-.056-.0116-.108-.0144-.1564-.0083-.0483.0062-.0912.026-.1287.0597-.0374.0337-.0603.0906-.0687.171-.006.059.0253.139.094.24.069.101.1537.2038.2544.3086.1007.1047.205.1986.3127.2817.1078.083.1976.1362.2696.1596zm.5344-1.5267l-.084-.0273c-.02-.0065-.038-.0157-.054-.0274-.016-.0118-.032-.0268-.0483-.0452-.016-.0182-.037-.0425-.0625-.0726-.0457-.0498-.1243-.1408-.236-.273-.1116-.1324-.2293-.2733-.353-.4226-.1238-.1494-.241-.2912-.352-.4255l-.2332-.282c-.0027-.0052-.0012-.0167.0046-.0345l.0125-.0385.0136-.0415c.0064-.0197.0122-.031.0175-.0336.0054-.0026.0183-.0083.0387-.017.0205-.0085.0426-.0188.0664-.0307.0238-.012.046-.0222.0664-.0308.0205-.0087.032-.017.0346-.0248.0115-.0357.0117-.077.0006-.1244-.011-.0472-.025-.0965-.0415-.1477-.0164-.0513-.0295-.1025-.0394-.1537-.01-.0512-.007-.1005.0083-.148.0166-.0513.044-.0948.082-.1304.038-.0357.0803-.0635.1265-.0834.0463-.02.0942-.0316.144-.035.0497-.0036.0965.0018.1405.016.092.03.1756.0713.2512.1243.0756.0528.1492.1084.2208.1666.0717.0582.1443.1134.2178.1657.0736.0523.1544.0927.2423.1213.088.0285.154.039.1985.0317.0444-.0074.0813-.0565.1108-.1474.0347-.1067.0517-.2136.0512-.3207-.0005-.107.016-.212.0492-.3147.096.0312.1665.0858.212.1638.0452.078.073.1657.0834.263.0105.097.007.1964-.0105.2977-.0174.1014-.039.1915-.0647.2705-.0487.15-.1273.2457-.2356.2868-.1084.0412-.2345.0385-.3784-.0083-.096-.031-.1803-.077-.2533-.138-.073-.0608-.1427-.125-.2092-.1923-.0664-.0675-.1338-.132-.2022-.1934-.0683-.0616-.1484-.1072-.2403-.137-.024-.008-.0572-.0143-.0997-.0194-.0426-.0052-.071.014-.085.0574-.0423.1303-.0386.2614.0114.3933.05.132.125.261.2252.3876.1003.1264.213.2482.3385.3654.1255.117.2422.227.3502.3298.108.1027.195.1954.261.278.0658.0825.0892.1534.07.2126-.027.083-.0748.1417-.1434.1762-.0686.0344-.143.0387-.2228.0127z" stroke-width=".2" stroke="#F56351" fill="#F56351"/></g></svg>